<mxfile host="app.diagrams.net" agent="Mozilla/5.0 (Windows NT 10.0; Win64; x64) AppleWebKit/537.36 (KHTML, like Gecko) Chrome/136.0.0.0 YaBrowser/25.6.0.0 Safari/537.36" version="28.0.4">
  <diagram name="Страница — 1" id="TUcKLxfdq0nGsHM6pUJm">
    <mxGraphModel dx="1426" dy="788" grid="1" gridSize="10" guides="1" tooltips="1" connect="1" arrows="1" fold="1" page="1" pageScale="1" pageWidth="1169" pageHeight="827" math="0" shadow="0">
      <root>
        <mxCell id="0" />
        <mxCell id="1" parent="0" />
        <mxCell id="4ieR_8gC-Z8n6EqSz_RM-5" value="" style="edgeStyle=orthogonalEdgeStyle;rounded=0;orthogonalLoop=1;jettySize=auto;html=1;" parent="1" source="4ieR_8gC-Z8n6EqSz_RM-1" target="4ieR_8gC-Z8n6EqSz_RM-4" edge="1">
          <mxGeometry relative="1" as="geometry" />
        </mxCell>
        <mxCell id="4ieR_8gC-Z8n6EqSz_RM-6" value="Вносит в БД" style="edgeLabel;html=1;align=center;verticalAlign=middle;resizable=0;points=[];" parent="4ieR_8gC-Z8n6EqSz_RM-5" vertex="1" connectable="0">
          <mxGeometry x="-0.1" y="-4" relative="1" as="geometry">
            <mxPoint as="offset" />
          </mxGeometry>
        </mxCell>
        <mxCell id="4ieR_8gC-Z8n6EqSz_RM-27" style="edgeStyle=orthogonalEdgeStyle;rounded=0;orthogonalLoop=1;jettySize=auto;html=1;entryX=0.75;entryY=0;entryDx=0;entryDy=0;enumerate=0;orthogonal=0;noJump=0;metaEdit=0;endArrow=ERmany;endFill=0;startArrow=ERmany;startFill=0;" parent="1" source="4ieR_8gC-Z8n6EqSz_RM-1" target="4ieR_8gC-Z8n6EqSz_RM-22" edge="1">
          <mxGeometry relative="1" as="geometry">
            <Array as="points">
              <mxPoint x="158" y="50" />
              <mxPoint x="760" y="50" />
            </Array>
          </mxGeometry>
        </mxCell>
        <mxCell id="4ieR_8gC-Z8n6EqSz_RM-28" value="Собирает" style="edgeLabel;html=1;align=center;verticalAlign=middle;resizable=0;points=[];" parent="4ieR_8gC-Z8n6EqSz_RM-27" connectable="0" vertex="1">
          <mxGeometry x="-0.2767" y="-2" relative="1" as="geometry">
            <mxPoint y="-12" as="offset" />
          </mxGeometry>
        </mxCell>
        <mxCell id="4ieR_8gC-Z8n6EqSz_RM-1" value="Товаровед" style="whiteSpace=wrap;html=1;align=center;fillColor=#fff2cc;strokeColor=#d6b656;" parent="1" vertex="1">
          <mxGeometry x="98" y="80" width="120" height="50" as="geometry" />
        </mxCell>
        <mxCell id="4ieR_8gC-Z8n6EqSz_RM-14" value="" style="edgeStyle=orthogonalEdgeStyle;rounded=0;orthogonalLoop=1;jettySize=auto;html=1;endArrow=ERmandOne;endFill=0;startArrow=ERmandOne;startFill=0;" parent="1" source="4ieR_8gC-Z8n6EqSz_RM-2" target="4ieR_8gC-Z8n6EqSz_RM-13" edge="1">
          <mxGeometry relative="1" as="geometry" />
        </mxCell>
        <mxCell id="4ieR_8gC-Z8n6EqSz_RM-15" value="Добавляет товар" style="edgeLabel;html=1;align=center;verticalAlign=middle;resizable=0;points=[];" parent="4ieR_8gC-Z8n6EqSz_RM-14" vertex="1" connectable="0">
          <mxGeometry x="-0.2837" y="2" relative="1" as="geometry">
            <mxPoint x="-3" y="-17" as="offset" />
          </mxGeometry>
        </mxCell>
        <mxCell id="4ieR_8gC-Z8n6EqSz_RM-17" value="" style="edgeStyle=orthogonalEdgeStyle;rounded=0;orthogonalLoop=1;jettySize=auto;html=1;startArrow=ERmandOne;startFill=0;endArrow=ERzeroToMany;endFill=0;" parent="1" source="4ieR_8gC-Z8n6EqSz_RM-2" target="4ieR_8gC-Z8n6EqSz_RM-16" edge="1">
          <mxGeometry relative="1" as="geometry" />
        </mxCell>
        <mxCell id="4ieR_8gC-Z8n6EqSz_RM-18" value="Добавляет товар" style="edgeLabel;html=1;align=center;verticalAlign=middle;resizable=0;points=[];" parent="4ieR_8gC-Z8n6EqSz_RM-17" vertex="1" connectable="0">
          <mxGeometry x="-0.72" relative="1" as="geometry">
            <mxPoint y="22" as="offset" />
          </mxGeometry>
        </mxCell>
        <mxCell id="4ieR_8gC-Z8n6EqSz_RM-23" value="" style="edgeStyle=orthogonalEdgeStyle;rounded=0;orthogonalLoop=1;jettySize=auto;html=1;endArrow=ERzeroToMany;endFill=0;" parent="1" source="4ieR_8gC-Z8n6EqSz_RM-2" target="4ieR_8gC-Z8n6EqSz_RM-22" edge="1">
          <mxGeometry relative="1" as="geometry" />
        </mxCell>
        <mxCell id="4ieR_8gC-Z8n6EqSz_RM-24" value="Оформляет" style="edgeLabel;html=1;align=center;verticalAlign=middle;resizable=0;points=[];" parent="4ieR_8gC-Z8n6EqSz_RM-23" vertex="1" connectable="0">
          <mxGeometry x="0.5892" y="1" relative="1" as="geometry">
            <mxPoint x="-11" as="offset" />
          </mxGeometry>
        </mxCell>
        <mxCell id="4ieR_8gC-Z8n6EqSz_RM-30" style="edgeStyle=orthogonalEdgeStyle;rounded=0;orthogonalLoop=1;jettySize=auto;html=1;exitX=1;exitY=0.75;exitDx=0;exitDy=0;entryX=0;entryY=0.25;entryDx=0;entryDy=0;startArrow=ERmandOne;startFill=0;endArrow=ERzeroToMany;endFill=0;" parent="1" source="4ieR_8gC-Z8n6EqSz_RM-2" target="4ieR_8gC-Z8n6EqSz_RM-29" edge="1">
          <mxGeometry relative="1" as="geometry" />
        </mxCell>
        <mxCell id="4ieR_8gC-Z8n6EqSz_RM-31" value="Осуществляет" style="edgeLabel;html=1;align=center;verticalAlign=middle;resizable=0;points=[];" parent="4ieR_8gC-Z8n6EqSz_RM-30" vertex="1" connectable="0">
          <mxGeometry x="0.5551" y="-2" relative="1" as="geometry">
            <mxPoint y="-17" as="offset" />
          </mxGeometry>
        </mxCell>
        <mxCell id="MF_oxw4VV_3QGGh89exo-15" style="edgeStyle=orthogonalEdgeStyle;rounded=0;orthogonalLoop=1;jettySize=auto;html=1;exitX=1;exitY=1;exitDx=0;exitDy=0;entryX=0;entryY=0.5;entryDx=0;entryDy=0;endArrow=ERzeroToMany;endFill=0;startArrow=ERmandOne;startFill=0;" parent="1" source="4ieR_8gC-Z8n6EqSz_RM-2" target="MF_oxw4VV_3QGGh89exo-10" edge="1">
          <mxGeometry relative="1" as="geometry" />
        </mxCell>
        <mxCell id="MF_oxw4VV_3QGGh89exo-16" value="Получает" style="edgeLabel;html=1;align=center;verticalAlign=middle;resizable=0;points=[];" parent="MF_oxw4VV_3QGGh89exo-15" connectable="0" vertex="1">
          <mxGeometry x="0.2767" y="4" relative="1" as="geometry">
            <mxPoint as="offset" />
          </mxGeometry>
        </mxCell>
        <mxCell id="4ieR_8gC-Z8n6EqSz_RM-2" value="Покупатель" style="whiteSpace=wrap;html=1;align=center;fillColor=#dae8fc;strokeColor=#6c8ebf;" parent="1" vertex="1">
          <mxGeometry x="510" y="80" width="120" height="50" as="geometry" />
        </mxCell>
        <mxCell id="MF_oxw4VV_3QGGh89exo-8" style="edgeStyle=orthogonalEdgeStyle;rounded=0;orthogonalLoop=1;jettySize=auto;html=1;entryX=1;entryY=0.75;entryDx=0;entryDy=0;exitX=0.5;exitY=1;exitDx=0;exitDy=0;endArrow=ERzeroToMany;endFill=0;startArrow=ERmandOne;startFill=0;" parent="1" source="4ieR_8gC-Z8n6EqSz_RM-3" target="4ieR_8gC-Z8n6EqSz_RM-29" edge="1">
          <mxGeometry relative="1" as="geometry" />
        </mxCell>
        <mxCell id="MF_oxw4VV_3QGGh89exo-9" value="Принимает" style="edgeLabel;html=1;align=center;verticalAlign=middle;resizable=0;points=[];" parent="MF_oxw4VV_3QGGh89exo-8" connectable="0" vertex="1">
          <mxGeometry x="-0.2109" y="-1" relative="1" as="geometry">
            <mxPoint as="offset" />
          </mxGeometry>
        </mxCell>
        <mxCell id="4ieR_8gC-Z8n6EqSz_RM-3" value="Курьер" style="whiteSpace=wrap;html=1;align=center;fillColor=#e1d5e7;strokeColor=#9673a6;" parent="1" vertex="1">
          <mxGeometry x="880" y="80" width="120" height="50" as="geometry" />
        </mxCell>
        <mxCell id="4ieR_8gC-Z8n6EqSz_RM-8" value="" style="edgeStyle=orthogonalEdgeStyle;rounded=0;orthogonalLoop=1;jettySize=auto;html=1;endArrow=ERoneToMany;endFill=0;startArrow=ERzeroToMany;startFill=0;" parent="1" source="4ieR_8gC-Z8n6EqSz_RM-4" target="4ieR_8gC-Z8n6EqSz_RM-7" edge="1">
          <mxGeometry relative="1" as="geometry">
            <Array as="points">
              <mxPoint x="130" y="390" />
              <mxPoint x="130" y="390" />
            </Array>
          </mxGeometry>
        </mxCell>
        <mxCell id="4ieR_8gC-Z8n6EqSz_RM-9" value="Содержится" style="edgeLabel;html=1;align=center;verticalAlign=middle;resizable=0;points=[];" parent="4ieR_8gC-Z8n6EqSz_RM-8" vertex="1" connectable="0">
          <mxGeometry x="-0.125" y="-1" relative="1" as="geometry">
            <mxPoint x="-39" y="9" as="offset" />
          </mxGeometry>
        </mxCell>
        <mxCell id="MF_oxw4VV_3QGGh89exo-1" style="edgeStyle=orthogonalEdgeStyle;rounded=0;orthogonalLoop=1;jettySize=auto;html=1;entryX=0;entryY=0.5;entryDx=0;entryDy=0;endArrow=ERzeroToMany;endFill=0;startArrow=ERoneToMany;startFill=0;" parent="1" source="4ieR_8gC-Z8n6EqSz_RM-4" target="4ieR_8gC-Z8n6EqSz_RM-13" edge="1">
          <mxGeometry relative="1" as="geometry" />
        </mxCell>
        <mxCell id="MF_oxw4VV_3QGGh89exo-2" value="Добавлен" style="edgeLabel;html=1;align=center;verticalAlign=middle;resizable=0;points=[];" parent="MF_oxw4VV_3QGGh89exo-1" connectable="0" vertex="1">
          <mxGeometry x="0.4" relative="1" as="geometry">
            <mxPoint x="-12" y="-15" as="offset" />
          </mxGeometry>
        </mxCell>
        <mxCell id="4ieR_8gC-Z8n6EqSz_RM-4" value="Товар" style="whiteSpace=wrap;html=1;align=center;fillColor=#1ba1e2;strokeColor=#006EAF;fontColor=#ffffff;" parent="1" vertex="1">
          <mxGeometry x="98" y="320" width="120" height="50" as="geometry" />
        </mxCell>
        <mxCell id="4ieR_8gC-Z8n6EqSz_RM-7" value="Каталог товаров" style="whiteSpace=wrap;html=1;align=center;fillColor=#1ba1e2;strokeColor=#006EAF;fontColor=#ffffff;" parent="1" vertex="1">
          <mxGeometry x="70" y="520" width="120" height="50" as="geometry" />
        </mxCell>
        <mxCell id="4ieR_8gC-Z8n6EqSz_RM-13" value="Избранное" style="whiteSpace=wrap;html=1;align=center;fillColor=#1ba1e2;strokeColor=#006EAF;fontColor=#ffffff;" parent="1" vertex="1">
          <mxGeometry x="320" y="320" width="120" height="50" as="geometry" />
        </mxCell>
        <mxCell id="4ieR_8gC-Z8n6EqSz_RM-16" value="Корзина" style="whiteSpace=wrap;html=1;align=center;fillColor=#1ba1e2;strokeColor=#006EAF;fontColor=#ffffff;" parent="1" vertex="1">
          <mxGeometry x="510" y="320" width="120" height="50" as="geometry" />
        </mxCell>
        <mxCell id="4ieR_8gC-Z8n6EqSz_RM-19" value="Сравнение товаров" style="whiteSpace=wrap;html=1;align=center;fillColor=#1ba1e2;strokeColor=#006EAF;fontColor=#ffffff;" parent="1" vertex="1">
          <mxGeometry x="370" y="470" width="120" height="50" as="geometry" />
        </mxCell>
        <mxCell id="4ieR_8gC-Z8n6EqSz_RM-20" value="" style="edgeStyle=orthogonalEdgeStyle;rounded=0;orthogonalLoop=1;jettySize=auto;html=1;entryX=0.75;entryY=0;entryDx=0;entryDy=0;exitX=0;exitY=0.75;exitDx=0;exitDy=0;endArrow=ERzeroToMany;endFill=0;startArrow=ERmandOne;startFill=0;" parent="1" source="4ieR_8gC-Z8n6EqSz_RM-2" target="4ieR_8gC-Z8n6EqSz_RM-19" edge="1">
          <mxGeometry relative="1" as="geometry">
            <mxPoint x="500" y="270" as="sourcePoint" />
            <mxPoint x="370" y="355" as="targetPoint" />
          </mxGeometry>
        </mxCell>
        <mxCell id="4ieR_8gC-Z8n6EqSz_RM-21" value="Добавляет товар" style="edgeLabel;html=1;align=center;verticalAlign=middle;resizable=0;points=[];" parent="4ieR_8gC-Z8n6EqSz_RM-20" vertex="1" connectable="0">
          <mxGeometry x="-0.2837" y="2" relative="1" as="geometry">
            <mxPoint as="offset" />
          </mxGeometry>
        </mxCell>
        <mxCell id="4ieR_8gC-Z8n6EqSz_RM-22" value="Заказ" style="whiteSpace=wrap;html=1;align=center;fillColor=#1ba1e2;strokeColor=#006EAF;fontColor=#ffffff;" parent="1" vertex="1">
          <mxGeometry x="670" y="320" width="120" height="50" as="geometry" />
        </mxCell>
        <mxCell id="4ieR_8gC-Z8n6EqSz_RM-25" style="edgeStyle=orthogonalEdgeStyle;rounded=0;orthogonalLoop=1;jettySize=auto;html=1;entryX=0.883;entryY=0;entryDx=0;entryDy=0;entryPerimeter=0;endArrow=ERmany;endFill=0;startArrow=ERmandOne;startFill=0;" parent="1" source="4ieR_8gC-Z8n6EqSz_RM-3" target="4ieR_8gC-Z8n6EqSz_RM-22" edge="1">
          <mxGeometry relative="1" as="geometry" />
        </mxCell>
        <mxCell id="4ieR_8gC-Z8n6EqSz_RM-26" value="Доставляет" style="edgeLabel;html=1;align=center;verticalAlign=middle;resizable=0;points=[];" parent="4ieR_8gC-Z8n6EqSz_RM-25" vertex="1" connectable="0">
          <mxGeometry x="-0.164" y="3" relative="1" as="geometry">
            <mxPoint x="19" y="-18" as="offset" />
          </mxGeometry>
        </mxCell>
        <mxCell id="4ieR_8gC-Z8n6EqSz_RM-32" style="edgeStyle=orthogonalEdgeStyle;rounded=0;orthogonalLoop=1;jettySize=auto;html=1;entryX=0.5;entryY=1;entryDx=0;entryDy=0;endArrow=ERmandOne;endFill=0;startArrow=ERmandOne;startFill=0;" parent="1" source="4ieR_8gC-Z8n6EqSz_RM-29" target="4ieR_8gC-Z8n6EqSz_RM-22" edge="1">
          <mxGeometry relative="1" as="geometry" />
        </mxCell>
        <mxCell id="4ieR_8gC-Z8n6EqSz_RM-33" value="Требует" style="edgeLabel;html=1;align=center;verticalAlign=middle;resizable=0;points=[];" parent="4ieR_8gC-Z8n6EqSz_RM-32" vertex="1" connectable="0">
          <mxGeometry x="-0.0857" relative="1" as="geometry">
            <mxPoint as="offset" />
          </mxGeometry>
        </mxCell>
        <mxCell id="MF_oxw4VV_3QGGh89exo-11" value="" style="edgeStyle=orthogonalEdgeStyle;rounded=0;orthogonalLoop=1;jettySize=auto;html=1;startArrow=ERmandOne;startFill=0;endArrow=ERmandOne;endFill=0;" parent="1" source="4ieR_8gC-Z8n6EqSz_RM-29" target="MF_oxw4VV_3QGGh89exo-10" edge="1">
          <mxGeometry relative="1" as="geometry" />
        </mxCell>
        <mxCell id="MF_oxw4VV_3QGGh89exo-14" value="Генерирует" style="edgeLabel;html=1;align=center;verticalAlign=middle;resizable=0;points=[];" parent="MF_oxw4VV_3QGGh89exo-11" connectable="0" vertex="1">
          <mxGeometry x="0.1429" relative="1" as="geometry">
            <mxPoint as="offset" />
          </mxGeometry>
        </mxCell>
        <mxCell id="4ieR_8gC-Z8n6EqSz_RM-29" value="Оплата" style="whiteSpace=wrap;html=1;align=center;fillColor=#1ba1e2;strokeColor=#006EAF;fontColor=#ffffff;" parent="1" vertex="1">
          <mxGeometry x="670" y="510" width="120" height="50" as="geometry" />
        </mxCell>
        <mxCell id="MF_oxw4VV_3QGGh89exo-3" style="edgeStyle=orthogonalEdgeStyle;rounded=0;orthogonalLoop=1;jettySize=auto;html=1;endArrow=ERzeroToMany;endFill=0;startArrow=ERmany;startFill=0;exitX=0.933;exitY=1.04;exitDx=0;exitDy=0;exitPerimeter=0;" parent="1" source="4ieR_8gC-Z8n6EqSz_RM-4" target="4ieR_8gC-Z8n6EqSz_RM-19" edge="1">
          <mxGeometry relative="1" as="geometry">
            <Array as="points">
              <mxPoint x="210" y="420" />
            </Array>
          </mxGeometry>
        </mxCell>
        <mxCell id="MF_oxw4VV_3QGGh89exo-17" value="Включен" style="edgeLabel;html=1;align=center;verticalAlign=middle;resizable=0;points=[];" parent="MF_oxw4VV_3QGGh89exo-3" connectable="0" vertex="1">
          <mxGeometry x="0.2516" y="-1" relative="1" as="geometry">
            <mxPoint as="offset" />
          </mxGeometry>
        </mxCell>
        <mxCell id="MF_oxw4VV_3QGGh89exo-4" style="edgeStyle=orthogonalEdgeStyle;rounded=0;orthogonalLoop=1;jettySize=auto;html=1;exitX=1;exitY=0.75;exitDx=0;exitDy=0;endArrow=ERoneToMany;endFill=0;startArrow=ERzeroToMany;startFill=0;" parent="1" source="4ieR_8gC-Z8n6EqSz_RM-22" target="4ieR_8gC-Z8n6EqSz_RM-4" edge="1">
          <mxGeometry relative="1" as="geometry">
            <mxPoint x="199" y="400" as="targetPoint" />
            <Array as="points">
              <mxPoint x="850" y="358" />
              <mxPoint x="850" y="700" />
              <mxPoint x="240" y="700" />
              <mxPoint x="240" y="440" />
              <mxPoint x="150" y="440" />
            </Array>
          </mxGeometry>
        </mxCell>
        <mxCell id="MF_oxw4VV_3QGGh89exo-5" value="Включен" style="edgeLabel;html=1;align=center;verticalAlign=middle;resizable=0;points=[];" parent="MF_oxw4VV_3QGGh89exo-4" connectable="0" vertex="1">
          <mxGeometry x="0.1164" relative="1" as="geometry">
            <mxPoint x="28" y="-10" as="offset" />
          </mxGeometry>
        </mxCell>
        <mxCell id="MF_oxw4VV_3QGGh89exo-6" style="edgeStyle=orthogonalEdgeStyle;rounded=0;orthogonalLoop=1;jettySize=auto;html=1;entryX=0.65;entryY=0.98;entryDx=0;entryDy=0;entryPerimeter=0;exitX=0.5;exitY=1;exitDx=0;exitDy=0;" parent="1" source="4ieR_8gC-Z8n6EqSz_RM-16" target="4ieR_8gC-Z8n6EqSz_RM-4" edge="1">
          <mxGeometry relative="1" as="geometry">
            <Array as="points">
              <mxPoint x="570" y="610" />
              <mxPoint x="290" y="610" />
              <mxPoint x="290" y="430" />
              <mxPoint x="176" y="430" />
            </Array>
          </mxGeometry>
        </mxCell>
        <mxCell id="MF_oxw4VV_3QGGh89exo-7" value="Включен" style="edgeLabel;html=1;align=center;verticalAlign=middle;resizable=0;points=[];" parent="MF_oxw4VV_3QGGh89exo-6" connectable="0" vertex="1">
          <mxGeometry x="-0.3431" y="5" relative="1" as="geometry">
            <mxPoint x="-63" y="-15" as="offset" />
          </mxGeometry>
        </mxCell>
        <mxCell id="MF_oxw4VV_3QGGh89exo-10" value="Чек оплаты" style="whiteSpace=wrap;html=1;align=center;fillColor=#1ba1e2;strokeColor=#006EAF;fontColor=#ffffff;" parent="1" vertex="1">
          <mxGeometry x="670" y="630" width="120" height="50" as="geometry" />
        </mxCell>
      </root>
    </mxGraphModel>
  </diagram>
</mxfile>
